<svg style="fill: inherit" width="24" height="25" viewBox="0 0 24 25" fill="inherit" xmlns="http://www.w3.org/2000/svg">
<g id="grid4">
<rect id="Rectangle 385" y="0.832031" width="4.61538" height="4.61538" fill="inherit"/>
<rect id="Rectangle 386" x="6.46191" y="0.832031" width="4.61538" height="4.61538" fill="inherit"/>
<rect id="Rectangle 387" x="12.9229" y="0.832031" width="4.61538" height="4.61538" fill="inherit"/>
<rect id="Rectangle 388" x="19.3848" y="0.832031" width="4.61538" height="4.61538" fill="inherit"/>
<rect id="Rectangle 389" x="19.3848" y="7.29297" width="4.61538" height="4.61538" fill="inherit"/>
<rect id="Rectangle 392" x="12.9229" y="7.29297" width="4.61538" height="4.61538" fill="inherit"/>
<rect id="Rectangle 395" x="6.46191" y="7.29297" width="4.61538" height="4.61538" fill="inherit"/>
<rect id="Rectangle 398" y="7.29297" width="4.61538" height="4.61538" fill="inherit"/>
<rect id="Rectangle 390" x="19.3848" y="13.7559" width="4.61538" height="4.61538" fill="inherit"/>
<rect id="Rectangle 393" x="12.9229" y="13.7559" width="4.61538" height="4.61538" fill="inherit"/>
<rect id="Rectangle 396" x="6.46191" y="13.7559" width="4.61538" height="4.61538" fill="inherit"/>
<rect id="Rectangle 399" y="13.7559" width="4.61538" height="4.61538" fill="inherit"/>
<rect id="Rectangle 391" x="19.3848" y="20.2168" width="4.61538" height="4.61538" fill="inherit"/>
<rect id="Rectangle 394" x="12.9229" y="20.2168" width="4.61538" height="4.61538" fill="inherit"/>
<rect id="Rectangle 397" x="6.46191" y="20.2168" width="4.61538" height="4.61538" fill="inherit"/>
<rect id="Rectangle 400" y="20.2168" width="4.61538" height="4.61538" fill="inherit"/>
</g>
</svg>
